<mxfile host="app.diagrams.net" modified="2023-11-08T02:03:10.944Z" agent="Mozilla/5.0 (Windows NT 10.0; Win64; x64) AppleWebKit/537.36 (KHTML, like Gecko) Chrome/119.0.0.0 Safari/537.36 Edg/119.0.0.0" etag="R1pezwOyJFo9RWIN2QN2" version="22.0.8" type="github">
  <diagram id="kgpKYQtTHZ0yAKxKKP6v" name="Page-1">
    <mxGraphModel dx="2577" dy="2094" grid="1" gridSize="10" guides="1" tooltips="1" connect="1" arrows="1" fold="1" page="1" pageScale="1" pageWidth="850" pageHeight="1100" math="0" shadow="0">
      <root>
        <mxCell id="0" />
        <mxCell id="1" parent="0" />
        <mxCell id="3nuBFxr9cyL0pnOWT2aG-1" value="PERK UP WITH A LATTE" style="shape=table;childLayout=tableLayout;startSize=40;collapsible=0;recursiveResize=0;expand=0;fillColor=none;fontStyle=1" parent="1" vertex="1">
          <mxGeometry x="100" y="70" width="670" height="300" as="geometry" />
        </mxCell>
        <mxCell id="3nuBFxr9cyL0pnOWT2aG-2" value="" style="edgeStyle=orthogonalEdgeStyle;rounded=0;orthogonalLoop=1;jettySize=auto;html=1;" parent="3nuBFxr9cyL0pnOWT2aG-1" source="3nuBFxr9cyL0pnOWT2aG-7" target="3nuBFxr9cyL0pnOWT2aG-17" edge="1">
          <mxGeometry relative="1" as="geometry" />
        </mxCell>
        <mxCell id="3nuBFxr9cyL0pnOWT2aG-3" value="Customer" style="shape=tableRow;horizontal=0;swimlaneHead=0;swimlaneBody=0;top=0;left=0;bottom=0;right=0;fillColor=none;points=[[0,0.5],[1,0.5]];portConstraint=eastwest;startSize=40;collapsible=0;recursiveResize=0;expand=0;fontStyle=1;" parent="3nuBFxr9cyL0pnOWT2aG-1" vertex="1">
          <mxGeometry y="40" width="670" height="180" as="geometry" />
        </mxCell>
        <mxCell id="3nuBFxr9cyL0pnOWT2aG-4" value="Feel tired" style="swimlane;swimlaneHead=0;swimlaneBody=0;connectable=0;fillColor=none;startSize=40;collapsible=0;recursiveResize=0;expand=0;fontStyle=1;" parent="3nuBFxr9cyL0pnOWT2aG-3" vertex="1">
          <mxGeometry x="40" width="130" height="180" as="geometry" />
        </mxCell>
        <mxCell id="3nuBFxr9cyL0pnOWT2aG-5" style="edgeStyle=orthogonalEdgeStyle;rounded=0;orthogonalLoop=1;jettySize=auto;html=1;" parent="3nuBFxr9cyL0pnOWT2aG-4" source="3nuBFxr9cyL0pnOWT2aG-6" target="3nuBFxr9cyL0pnOWT2aG-7" edge="1">
          <mxGeometry relative="1" as="geometry" />
        </mxCell>
        <mxCell id="3nuBFxr9cyL0pnOWT2aG-6" value="Start" style="rounded=1;whiteSpace=wrap;html=1;arcSize=50;" parent="3nuBFxr9cyL0pnOWT2aG-4" vertex="1">
          <mxGeometry x="20" y="60" width="90" height="40" as="geometry" />
        </mxCell>
        <mxCell id="3nuBFxr9cyL0pnOWT2aG-7" value="Find barista" style="rounded=0;whiteSpace=wrap;html=1;" parent="3nuBFxr9cyL0pnOWT2aG-4" vertex="1">
          <mxGeometry x="20" y="120" width="90" height="40" as="geometry" />
        </mxCell>
        <mxCell id="3nuBFxr9cyL0pnOWT2aG-8" value="Make transaction" style="swimlane;swimlaneHead=0;swimlaneBody=0;connectable=0;fillColor=none;startSize=40;collapsible=0;recursiveResize=0;expand=0;fontStyle=1;" parent="3nuBFxr9cyL0pnOWT2aG-3" vertex="1">
          <mxGeometry x="170" width="370" height="180" as="geometry" />
        </mxCell>
        <mxCell id="3nuBFxr9cyL0pnOWT2aG-9" value="Request latte" style="rounded=0;whiteSpace=wrap;html=1;" parent="3nuBFxr9cyL0pnOWT2aG-8" vertex="1">
          <mxGeometry x="20" y="120" width="90" height="40" as="geometry" />
        </mxCell>
        <mxCell id="3nuBFxr9cyL0pnOWT2aG-10" value="Buy latte" style="rounded=0;whiteSpace=wrap;html=1;" parent="3nuBFxr9cyL0pnOWT2aG-8" vertex="1">
          <mxGeometry x="150" y="120" width="90" height="40" as="geometry" />
        </mxCell>
        <mxCell id="3nuBFxr9cyL0pnOWT2aG-11" value="Feel perky" style="swimlane;swimlaneHead=0;swimlaneBody=0;connectable=0;fillColor=none;startSize=40;collapsible=0;recursiveResize=0;expand=0;fontStyle=1;" parent="3nuBFxr9cyL0pnOWT2aG-3" vertex="1">
          <mxGeometry x="540" width="130" height="180" as="geometry" />
        </mxCell>
        <mxCell id="3nuBFxr9cyL0pnOWT2aG-12" style="edgeStyle=orthogonalEdgeStyle;rounded=0;orthogonalLoop=1;jettySize=auto;html=1;" parent="3nuBFxr9cyL0pnOWT2aG-11" source="3nuBFxr9cyL0pnOWT2aG-13" target="3nuBFxr9cyL0pnOWT2aG-14" edge="1">
          <mxGeometry relative="1" as="geometry" />
        </mxCell>
        <mxCell id="3nuBFxr9cyL0pnOWT2aG-13" value="Drink latte" style="rounded=0;whiteSpace=wrap;html=1;" parent="3nuBFxr9cyL0pnOWT2aG-11" vertex="1">
          <mxGeometry x="20" y="60" width="90" height="40" as="geometry" />
        </mxCell>
        <mxCell id="3nuBFxr9cyL0pnOWT2aG-14" value="End" style="rounded=1;whiteSpace=wrap;html=1;arcSize=50;" parent="3nuBFxr9cyL0pnOWT2aG-11" vertex="1">
          <mxGeometry x="20" y="120" width="90" height="40" as="geometry" />
        </mxCell>
        <mxCell id="3nuBFxr9cyL0pnOWT2aG-15" value="Barista" style="shape=tableRow;horizontal=0;swimlaneHead=0;swimlaneBody=0;top=0;left=0;bottom=0;right=0;fillColor=none;points=[[0,0.5],[1,0.5]];portConstraint=eastwest;startSize=40;collapsible=0;recursiveResize=0;expand=0;fontStyle=1;" parent="3nuBFxr9cyL0pnOWT2aG-1" vertex="1">
          <mxGeometry y="220" width="670" height="80" as="geometry" />
        </mxCell>
        <mxCell id="3nuBFxr9cyL0pnOWT2aG-16" value="" style="swimlane;swimlaneHead=0;swimlaneBody=0;connectable=0;fillColor=none;startSize=0;collapsible=0;recursiveResize=0;expand=0;fontStyle=1;" parent="3nuBFxr9cyL0pnOWT2aG-15" vertex="1">
          <mxGeometry x="40" width="130" height="80" as="geometry" />
        </mxCell>
        <mxCell id="3nuBFxr9cyL0pnOWT2aG-17" value="Greet customer" style="rounded=0;whiteSpace=wrap;html=1;" parent="3nuBFxr9cyL0pnOWT2aG-16" vertex="1">
          <mxGeometry x="20" y="20" width="90" height="40" as="geometry" />
        </mxCell>
        <mxCell id="3nuBFxr9cyL0pnOWT2aG-18" value="" style="swimlane;swimlaneHead=0;swimlaneBody=0;connectable=0;fillColor=none;startSize=0;collapsible=0;recursiveResize=0;expand=0;fontStyle=1;" parent="3nuBFxr9cyL0pnOWT2aG-15" vertex="1">
          <mxGeometry x="170" width="370" height="80" as="geometry" />
        </mxCell>
        <mxCell id="3nuBFxr9cyL0pnOWT2aG-19" value="" style="edgeStyle=orthogonalEdgeStyle;rounded=0;orthogonalLoop=1;jettySize=auto;html=1;" parent="3nuBFxr9cyL0pnOWT2aG-18" source="3nuBFxr9cyL0pnOWT2aG-20" target="3nuBFxr9cyL0pnOWT2aG-22" edge="1">
          <mxGeometry relative="1" as="geometry" />
        </mxCell>
        <mxCell id="3nuBFxr9cyL0pnOWT2aG-20" value="Accept&lt;br&gt;payment" style="rounded=0;whiteSpace=wrap;html=1;" parent="3nuBFxr9cyL0pnOWT2aG-18" vertex="1">
          <mxGeometry x="150" y="20" width="90" height="40" as="geometry" />
        </mxCell>
        <mxCell id="3nuBFxr9cyL0pnOWT2aG-21" value="Write details&lt;br&gt;on cup" style="shape=document;whiteSpace=wrap;html=1;boundedLbl=1;" parent="3nuBFxr9cyL0pnOWT2aG-18" vertex="1">
          <mxGeometry x="20" y="10" width="90" height="60" as="geometry" />
        </mxCell>
        <mxCell id="3nuBFxr9cyL0pnOWT2aG-22" value="Make latte" style="shape=process;whiteSpace=wrap;html=1;backgroundOutline=1;" parent="3nuBFxr9cyL0pnOWT2aG-18" vertex="1">
          <mxGeometry x="260" y="20" width="90" height="40" as="geometry" />
        </mxCell>
        <mxCell id="3nuBFxr9cyL0pnOWT2aG-23" value="" style="swimlane;swimlaneHead=0;swimlaneBody=0;connectable=0;fillColor=none;startSize=0;collapsible=0;recursiveResize=0;expand=0;fontStyle=1;" parent="3nuBFxr9cyL0pnOWT2aG-15" vertex="1">
          <mxGeometry x="540" width="130" height="80" as="geometry" />
        </mxCell>
        <mxCell id="3nuBFxr9cyL0pnOWT2aG-24" value="" style="edgeStyle=orthogonalEdgeStyle;rounded=0;orthogonalLoop=1;jettySize=auto;html=1;" parent="3nuBFxr9cyL0pnOWT2aG-1" source="3nuBFxr9cyL0pnOWT2aG-17" target="3nuBFxr9cyL0pnOWT2aG-9" edge="1">
          <mxGeometry relative="1" as="geometry">
            <Array as="points">
              <mxPoint x="160" y="260" />
              <mxPoint x="160" y="180" />
            </Array>
          </mxGeometry>
        </mxCell>
        <mxCell id="3nuBFxr9cyL0pnOWT2aG-25" value="" style="edgeStyle=orthogonalEdgeStyle;rounded=0;orthogonalLoop=1;jettySize=auto;html=1;" parent="3nuBFxr9cyL0pnOWT2aG-1" source="3nuBFxr9cyL0pnOWT2aG-9" target="3nuBFxr9cyL0pnOWT2aG-21" edge="1">
          <mxGeometry relative="1" as="geometry" />
        </mxCell>
        <mxCell id="3nuBFxr9cyL0pnOWT2aG-26" value="" style="edgeStyle=orthogonalEdgeStyle;rounded=0;orthogonalLoop=1;jettySize=auto;html=1;" parent="3nuBFxr9cyL0pnOWT2aG-1" source="3nuBFxr9cyL0pnOWT2aG-21" target="3nuBFxr9cyL0pnOWT2aG-10" edge="1">
          <mxGeometry relative="1" as="geometry">
            <Array as="points">
              <mxPoint x="300" y="260" />
              <mxPoint x="300" y="180" />
            </Array>
          </mxGeometry>
        </mxCell>
        <mxCell id="3nuBFxr9cyL0pnOWT2aG-27" value="" style="edgeStyle=orthogonalEdgeStyle;rounded=0;orthogonalLoop=1;jettySize=auto;html=1;" parent="3nuBFxr9cyL0pnOWT2aG-1" source="3nuBFxr9cyL0pnOWT2aG-10" target="3nuBFxr9cyL0pnOWT2aG-20" edge="1">
          <mxGeometry relative="1" as="geometry" />
        </mxCell>
        <mxCell id="3nuBFxr9cyL0pnOWT2aG-28" style="edgeStyle=orthogonalEdgeStyle;rounded=0;orthogonalLoop=1;jettySize=auto;html=1;" parent="3nuBFxr9cyL0pnOWT2aG-1" source="3nuBFxr9cyL0pnOWT2aG-22" target="3nuBFxr9cyL0pnOWT2aG-13" edge="1">
          <mxGeometry relative="1" as="geometry">
            <Array as="points">
              <mxPoint x="530" y="260" />
              <mxPoint x="530" y="120" />
            </Array>
          </mxGeometry>
        </mxCell>
        <mxCell id="YneX30xNPcTpUWR3u8-_-6" value="" style="rounded=1;whiteSpace=wrap;html=1;glass=0;shadow=0;allowArrows=1;connectable=1;arcSize=4;" vertex="1" parent="1">
          <mxGeometry x="-442.5" y="-830" width="992.5" height="600" as="geometry" />
        </mxCell>
        <mxCell id="YneX30xNPcTpUWR3u8-_-34" value="" style="rounded=1;whiteSpace=wrap;html=1;arcSize=6;" vertex="1" parent="1">
          <mxGeometry x="-420" y="-590" width="805" height="130" as="geometry" />
        </mxCell>
        <mxCell id="YneX30xNPcTpUWR3u8-_-7" value="core" style="rounded=1;whiteSpace=wrap;html=1;labelPosition=center;verticalLabelPosition=middle;align=center;verticalAlign=top;arcSize=6;" vertex="1" parent="1">
          <mxGeometry x="-415" y="-450" width="800" height="190" as="geometry" />
        </mxCell>
        <mxCell id="YneX30xNPcTpUWR3u8-_-8" value="react" style="rounded=1;whiteSpace=wrap;html=1;verticalAlign=top;arcSize=6;" vertex="1" parent="1">
          <mxGeometry x="-402.5" y="-580" width="402.5" height="110" as="geometry" />
        </mxCell>
        <mxCell id="YneX30xNPcTpUWR3u8-_-9" value="vue" style="rounded=1;whiteSpace=wrap;html=1;verticalAlign=top;arcSize=6;" vertex="1" parent="1">
          <mxGeometry x="15" y="-580" width="265" height="110" as="geometry" />
        </mxCell>
        <mxCell id="YneX30xNPcTpUWR3u8-_-10" value="system" style="rounded=1;whiteSpace=wrap;html=1;verticalAlign=top;arcSize=6;" vertex="1" parent="1">
          <mxGeometry x="-402.5" y="-770" width="352.5" height="160" as="geometry" />
        </mxCell>
        <mxCell id="YneX30xNPcTpUWR3u8-_-11" value="shared" style="rounded=1;whiteSpace=wrap;html=1;arcSize=6;" vertex="1" parent="1">
          <mxGeometry x="400" y="-590" width="120" height="130" as="geometry" />
        </mxCell>
        <mxCell id="YneX30xNPcTpUWR3u8-_-12" value="base-entity" style="rounded=1;whiteSpace=wrap;html=1;arcSize=6;" vertex="1" parent="1">
          <mxGeometry x="230" y="-320" width="140" height="40" as="geometry" />
        </mxCell>
        <mxCell id="YneX30xNPcTpUWR3u8-_-13" value="Application" style="rounded=1;whiteSpace=wrap;html=1;arcSize=6;" vertex="1" parent="1">
          <mxGeometry x="-395" y="-320" width="140" height="40" as="geometry" />
        </mxCell>
        <mxCell id="YneX30xNPcTpUWR3u8-_-18" value="decorator" style="rounded=1;whiteSpace=wrap;html=1;arcSize=6;" vertex="1" parent="1">
          <mxGeometry x="-187" y="-320" width="140" height="40" as="geometry" />
        </mxCell>
        <mxCell id="YneX30xNPcTpUWR3u8-_-20" value="base-store" style="rounded=1;whiteSpace=wrap;html=1;arcSize=6;" vertex="1" parent="1">
          <mxGeometry x="22" y="-320" width="140" height="40" as="geometry" />
        </mxCell>
        <mxCell id="YneX30xNPcTpUWR3u8-_-22" value="form" style="rounded=1;whiteSpace=wrap;html=1;arcSize=6;" vertex="1" parent="1">
          <mxGeometry x="-390" y="-545" width="90" height="50" as="geometry" />
        </mxCell>
        <mxCell id="YneX30xNPcTpUWR3u8-_-23" value="table" style="rounded=1;whiteSpace=wrap;html=1;arcSize=6;" vertex="1" parent="1">
          <mxGeometry x="-293" y="-545" width="90" height="50" as="geometry" />
        </mxCell>
        <mxCell id="YneX30xNPcTpUWR3u8-_-24" value="query-table" style="rounded=1;whiteSpace=wrap;html=1;arcSize=6;" vertex="1" parent="1">
          <mxGeometry x="-197" y="-545" width="90" height="50" as="geometry" />
        </mxCell>
        <mxCell id="YneX30xNPcTpUWR3u8-_-25" value="cli" style="rounded=1;whiteSpace=wrap;html=1;arcSize=6;" vertex="1" parent="1">
          <mxGeometry x="400" y="-450" width="120" height="190" as="geometry" />
        </mxCell>
        <mxCell id="YneX30xNPcTpUWR3u8-_-27" value="icost" style="rounded=1;whiteSpace=wrap;html=1;arcSize=6;" vertex="1" parent="1">
          <mxGeometry x="-17" y="-670" width="150" height="60" as="geometry" />
        </mxCell>
        <mxCell id="YneX30xNPcTpUWR3u8-_-28" value="idocument" style="rounded=1;whiteSpace=wrap;html=1;arcSize=6;" vertex="1" parent="1">
          <mxGeometry x="175" y="-670" width="150" height="60" as="geometry" />
        </mxCell>
        <mxCell id="YneX30xNPcTpUWR3u8-_-29" value="iproc-portal" style="rounded=1;whiteSpace=wrap;html=1;arcSize=6;" vertex="1" parent="1">
          <mxGeometry x="170" y="-770" width="150" height="60" as="geometry" />
        </mxCell>
        <mxCell id="YneX30xNPcTpUWR3u8-_-30" value="iproject" style="rounded=1;whiteSpace=wrap;html=1;arcSize=6;" vertex="1" parent="1">
          <mxGeometry x="367.5" y="-670" width="150" height="60" as="geometry" />
        </mxCell>
        <mxCell id="YneX30xNPcTpUWR3u8-_-31" value="ibom" style="rounded=1;whiteSpace=wrap;html=1;arcSize=6;" vertex="1" parent="1">
          <mxGeometry x="-17" y="-770" width="150" height="60" as="geometry" />
        </mxCell>
        <mxCell id="YneX30xNPcTpUWR3u8-_-32" value="..." style="rounded=1;whiteSpace=wrap;html=1;arcSize=6;" vertex="1" parent="1">
          <mxGeometry x="370" y="-770" width="150" height="60" as="geometry" />
        </mxCell>
        <mxCell id="YneX30xNPcTpUWR3u8-_-33" value="..." style="rounded=1;whiteSpace=wrap;html=1;verticalAlign=middle;arcSize=6;" vertex="1" parent="1">
          <mxGeometry x="300" y="-580" width="70" height="110" as="geometry" />
        </mxCell>
        <mxCell id="YneX30xNPcTpUWR3u8-_-35" value="..." style="rounded=1;whiteSpace=wrap;html=1;arcSize=6;" vertex="1" parent="1">
          <mxGeometry x="-100" y="-545" width="90" height="50" as="geometry" />
        </mxCell>
        <mxCell id="YneX30xNPcTpUWR3u8-_-36" value="..." style="rounded=1;whiteSpace=wrap;html=1;arcSize=6;" vertex="1" parent="1">
          <mxGeometry x="175" y="-545" width="90" height="50" as="geometry" />
        </mxCell>
        <mxCell id="YneX30xNPcTpUWR3u8-_-37" value="" style="endArrow=classic;html=1;rounded=0;entryX=0;entryY=0.5;entryDx=0;entryDy=0;arcSize=6;" edge="1" parent="1" source="YneX30xNPcTpUWR3u8-_-6" target="YneX30xNPcTpUWR3u8-_-1">
          <mxGeometry width="50" height="50" relative="1" as="geometry">
            <mxPoint x="-20" y="-690" as="sourcePoint" />
            <mxPoint x="30" y="-740" as="targetPoint" />
          </mxGeometry>
        </mxCell>
        <mxCell id="YneX30xNPcTpUWR3u8-_-38" value="每一个模块的基本结构" style="edgeLabel;html=1;align=center;verticalAlign=middle;resizable=0;points=[];arcSize=6;" vertex="1" connectable="0" parent="YneX30xNPcTpUWR3u8-_-37">
          <mxGeometry x="0.2297" y="1" relative="1" as="geometry">
            <mxPoint as="offset" />
          </mxGeometry>
        </mxCell>
        <mxCell id="YneX30xNPcTpUWR3u8-_-41" value="login" style="rounded=1;whiteSpace=wrap;html=1;arcSize=6;" vertex="1" parent="1">
          <mxGeometry x="-380" y="-740" width="90" height="40" as="geometry" />
        </mxCell>
        <mxCell id="YneX30xNPcTpUWR3u8-_-42" value="auth" style="rounded=1;whiteSpace=wrap;html=1;arcSize=6;" vertex="1" parent="1">
          <mxGeometry x="-271.25" y="-740" width="90" height="40" as="geometry" />
        </mxCell>
        <mxCell id="YneX30xNPcTpUWR3u8-_-43" value="user" style="rounded=1;whiteSpace=wrap;html=1;arcSize=6;" vertex="1" parent="1">
          <mxGeometry x="-162" y="-740" width="90" height="40" as="geometry" />
        </mxCell>
        <mxCell id="YneX30xNPcTpUWR3u8-_-45" value="role" style="rounded=1;whiteSpace=wrap;html=1;arcSize=6;" vertex="1" parent="1">
          <mxGeometry x="-383" y="-680" width="90" height="40" as="geometry" />
        </mxCell>
        <mxCell id="YneX30xNPcTpUWR3u8-_-46" value="admin" style="rounded=1;whiteSpace=wrap;html=1;arcSize=6;" vertex="1" parent="1">
          <mxGeometry x="-271.25" y="-680" width="90" height="40" as="geometry" />
        </mxCell>
        <mxCell id="YneX30xNPcTpUWR3u8-_-1" value="module" style="rounded=1;whiteSpace=wrap;html=1;align=center;labelPosition=center;verticalLabelPosition=middle;verticalAlign=top;movable=1;resizable=1;rotatable=1;deletable=1;editable=1;locked=0;connectable=1;arcSize=6;" vertex="1" parent="1">
          <mxGeometry x="690" y="-790" width="230" height="120" as="geometry" />
        </mxCell>
        <mxCell id="YneX30xNPcTpUWR3u8-_-2" value="entity" style="rounded=1;whiteSpace=wrap;html=1;movable=1;resizable=1;rotatable=1;deletable=1;editable=1;locked=0;connectable=1;arcSize=6;" vertex="1" parent="1">
          <mxGeometry x="715" y="-750" width="85" height="30" as="geometry" />
        </mxCell>
        <mxCell id="YneX30xNPcTpUWR3u8-_-3" value="store" style="rounded=1;whiteSpace=wrap;html=1;movable=1;resizable=1;rotatable=1;deletable=1;editable=1;locked=0;connectable=1;arcSize=6;" vertex="1" parent="1">
          <mxGeometry x="810" y="-750" width="85" height="30" as="geometry" />
        </mxCell>
        <mxCell id="YneX30xNPcTpUWR3u8-_-4" value="service" style="rounded=1;whiteSpace=wrap;html=1;movable=1;resizable=1;rotatable=1;deletable=1;editable=1;locked=0;connectable=1;arcSize=6;" vertex="1" parent="1">
          <mxGeometry x="715" y="-710" width="85" height="30" as="geometry" />
        </mxCell>
        <mxCell id="YneX30xNPcTpUWR3u8-_-5" value="module" style="rounded=1;whiteSpace=wrap;html=1;movable=1;resizable=1;rotatable=1;deletable=1;editable=1;locked=0;connectable=1;arcSize=6;" vertex="1" parent="1">
          <mxGeometry x="810" y="-710" width="85" height="30" as="geometry" />
        </mxCell>
        <mxCell id="YneX30xNPcTpUWR3u8-_-47" value="common" style="rounded=1;whiteSpace=wrap;html=1;arcSize=6;verticalAlign=top;" vertex="1" parent="1">
          <mxGeometry x="-395" y="-425" width="765" height="85" as="geometry" />
        </mxCell>
        <mxCell id="YneX30xNPcTpUWR3u8-_-14" value="route" style="rounded=1;whiteSpace=wrap;html=1;arcSize=6;" vertex="1" parent="1">
          <mxGeometry x="-375" y="-395" width="120" height="40" as="geometry" />
        </mxCell>
        <mxCell id="YneX30xNPcTpUWR3u8-_-16" value="http" style="rounded=1;whiteSpace=wrap;html=1;arcSize=6;" vertex="1" parent="1">
          <mxGeometry x="-72" y="-399" width="120" height="40" as="geometry" />
        </mxCell>
        <mxCell id="YneX30xNPcTpUWR3u8-_-17" value="localization" style="rounded=1;whiteSpace=wrap;html=1;arcSize=6;" vertex="1" parent="1">
          <mxGeometry x="79" y="-401" width="120" height="40" as="geometry" />
        </mxCell>
        <mxCell id="YneX30xNPcTpUWR3u8-_-19" value="logger" style="rounded=1;whiteSpace=wrap;html=1;arcSize=6;" vertex="1" parent="1">
          <mxGeometry x="-224" y="-397" width="120" height="40" as="geometry" />
        </mxCell>
        <mxCell id="YneX30xNPcTpUWR3u8-_-50" value="message" style="rounded=1;whiteSpace=wrap;html=1;arcSize=6;" vertex="1" parent="1">
          <mxGeometry x="230" y="-402.5" width="120" height="40" as="geometry" />
        </mxCell>
        <mxCell id="YneX30xNPcTpUWR3u8-_-51" value="form" style="rounded=1;whiteSpace=wrap;html=1;arcSize=6;" vertex="1" parent="1">
          <mxGeometry x="30" y="-545" width="90" height="50" as="geometry" />
        </mxCell>
      </root>
    </mxGraphModel>
  </diagram>
</mxfile>
